<?xml version="1.0" encoding="UTF-8"?>
<svg width="50px" height="50px" viewBox="0 0 50 50" version="1.1" xmlns="http://www.w3.org/2000/svg" xmlns:xlink="http://www.w3.org/1999/xlink">
    <!-- Generator: Sketch 59 (86127) - https://sketch.com -->
    <title>App Logo Copy</title>
    <desc>Created with Sketch.</desc>
    <defs>
        <linearGradient x1="5.37388491%" y1="92.9868909%" x2="92.0297705%" y2="-7.3148488%" id="linearGradient-1">
            <stop stop-color="#B1B7C2" offset="0%"></stop>
            <stop stop-color="#FFFFFF" offset="100%"></stop>
        </linearGradient>
        <linearGradient x1="-15.7653218%" y1="100.174689%" x2="79.8551157%" y2="15.3496191%" id="linearGradient-2">
            <stop stop-color="#EF184B" offset="0%"></stop>
            <stop stop-color="#FF9E15" offset="100%"></stop>
        </linearGradient>
        <linearGradient x1="25.936657%" y1="100%" x2="74.063343%" y2="0%" id="linearGradient-3">
            <stop stop-color="#F54D36" offset="0.857791385%"></stop>
            <stop stop-color="#FF9E15" offset="100%"></stop>
        </linearGradient>
        <path d="M32.3580913,19.9127857 C32.1348635,17.7879861 31.033712,16.286273 28.9502533,15.524267 C27.8764465,15.1318583 26.7532088,14.9560305 25.6168246,14.9388578 C23.273065,14.9037435 20.9287796,14.9170716 18.5847572,14.9116848 C18.5332228,14.9114328 18.4816885,14.9227104 18.4180594,14.9301433 L18.4180594,16.9921473 L21.0137061,16.9921473 C21.0310595,16.9921473 21.0470982,16.9941978 21.0639257,16.9947104 L21.0639257,16.9913784 C22.2384348,16.9913784 23.3740302,16.9572893 24.5062075,17.002656 C25.351791,17.0362324 26.2092063,17.1008223 27.0329665,17.2776753 C28.8335123,17.6636763 29.6951345,18.7055714 29.7613929,20.5056279 C29.7816385,21.0528471 29.7395697,21.6167264 29.6212511,22.1511302 C29.2907479,23.6479734 28.220885,24.4363792 26.759782,24.7498448 C26.0777412,24.8959408 25.3694073,24.9636063 24.670013,24.9884683 C23.5891071,25.0271709 22.5055719,24.9987206 21.4230884,24.9987206 L21.0639257,24.9987206 L21.0639257,24.9928255 L18.4180594,24.9928255 L18.4180594,35.0883152 L21.0549861,35.0883152 L21.0549861,27.0999399 C22.4082877,27.0999399 23.7208351,27.1001962 25.0333825,27.0999399 C26.0054354,27.0996836 26.9630271,26.9792184 27.8961663,26.7175272 C29.7424619,26.2002961 31.1938365,25.210688 31.9500236,23.4178081 C32.4264531,22.2879991 32.483246,21.1035963 32.3580913,19.9127857" id="path-4"></path>
        <filter x="-7.1%" y="-5.0%" width="114.3%" height="109.9%" filterUnits="objectBoundingBox" id="filter-5">
            <feGaussianBlur stdDeviation="0.5" in="SourceAlpha" result="shadowBlurInner1"></feGaussianBlur>
            <feOffset dx="0" dy="1" in="shadowBlurInner1" result="shadowOffsetInner1"></feOffset>
            <feComposite in="shadowOffsetInner1" in2="SourceAlpha" operator="arithmetic" k2="-1" k3="1" result="shadowInnerInner1"></feComposite>
            <feColorMatrix values="0 0 0 0 0   0 0 0 0 0   0 0 0 0 0  0 0 0 0.2 0" type="matrix" in="shadowInnerInner1"></feColorMatrix>
        </filter>
    </defs>
    <g id="App-Logo-Copy" stroke="none" stroke-width="1" fill="none" fill-rule="evenodd">
        <g id="App-Logo">
            <g id="Logo" fill-rule="nonzero">
                <path d="M13.9148391,1.03305808 C19.0581694,-4.4558044 48.5878867,13.145323 49.955851,25.1472855 C51.3238153,37.149248 20.5123046,56.1370354 11.6690079,48.0586904 C3.97824806,41.025593 -0.0287024521,15.939653 13.9148391,1.03305808 Z" id="Path" fill="url(#linearGradient-1)"></path>
                <path d="M24.9689256,48.6616466 C17.5427908,49.9318403 -2.99620706,25.4412459 0.369517548,15.3741735 C3.73524216,5.30710106 27.0152861,1.04512878 41.6898454,9.65830181 C57.4414366,18.901323 37.484036,46.5359092 24.9689256,48.6616466 Z" id="Path" fill="url(#linearGradient-2)"></path>
                <path d="M36.9827721,14.1416253 C45.2734366,17.6327724 40.5382227,36.2820179 34.4885696,40.8983239 C28.1210806,45.7617442 7.07389011,43.6008083 6.20657563,25.4457915 C5.8079342,17.2016368 18.9900369,6.56520504 36.9827721,14.1416253 Z" id="Path" fill="#231F20" opacity="0.3" style="mix-blend-mode: overlay;"></path>
                <path d="M36.9827721,13.2924405 C45.2734366,16.7835877 40.5382227,35.4275753 34.4885696,40.0491391 C28.1210806,44.9125595 7.07389011,42.7516235 6.20657563,24.5966067 C5.8079342,16.352452 18.9900369,5.71602026 36.9827721,13.2924405 Z" id="Path" fill="#231F20" opacity="0.6" style="mix-blend-mode: overlay;"></path>
                <path d="M36.9827721,12.3073862 C45.2734366,15.7985333 40.5382227,34.4477787 34.4885696,39.0640848 C28.1210806,43.9275051 7.07389011,41.7665692 6.20657563,23.6115524 C5.8079342,15.3673977 18.9900369,4.73096591 36.9827721,12.3073862 Z" id="Path" fill="#FFFFFF"></path>
                <path d="M36.9827721,11.7639079 C45.2734366,15.2550551 40.5382227,33.9043005 34.4885696,38.5206065 C28.1210806,43.3840269 7.07389011,41.2230909 6.20657563,23.0680741 C5.8079342,14.8239194 18.9900369,4.18748765 36.9827721,11.7639079 Z" id="Path" fill="#FFFFFF"></path>
                <g id="Group" opacity="0.4" style="mix-blend-mode: overlay;" transform="translate(5.605850, 8.967391)" fill="#FFFFFF">
                    <path d="M20.4444316,31.8745449 C15.8048511,31.9079449 11.275742,30.4929287 7.51794675,27.8359615 C3.20911845,24.6808183 0.806946677,19.9218105 0.516100767,14.1163469 C0.392221953,11.4397337 1.70102855,8.48441618 4.1139724,6.01288729 C7.78186249,2.28455966 13.3240929,0.149579388 19.3672246,0.149579388 C23.526515,0.202424706 27.6306384,1.08650539 31.4265578,2.74731401 C33.8125714,3.75170128 35.3152753,6.10228301 35.7730883,9.55190631 C36.6725562,16.3880501 33.290126,26.3004585 28.9489815,29.6186175 C27.0530971,31.0279148 23.9561267,31.8745449 20.4444316,31.8745449 Z M19.3672246,0.28104369 C13.3833393,0.28104369 7.87342509,2.38447253 4.25400932,6.10754158 C1.86799565,8.54751904 0.56996112,11.4660266 0.693839934,14.1110883 C1.25937365,26.2951999 11.0134837,31.7430806 20.4444316,31.7430806 C23.9399686,31.7430806 27.0100088,30.9280019 28.8628049,29.513446 C33.1716332,26.2215799 36.5271333,16.3407229 35.6330514,9.5729406 C35.1806244,6.17064445 33.7048507,3.85161415 31.3673114,2.86300259 C27.5892993,1.21291752 23.5056758,0.334278197 19.3672246,0.28104369 Z" id="Shape"></path>
                </g>
            </g>
            <g id="Fill-1">
                <use fill="url(#linearGradient-3)" fill-rule="evenodd" xlink:href="#path-4"></use>
                <use fill="black" fill-opacity="1" filter="url(#filter-5)" xlink:href="#path-4"></use>
            </g>
        </g>
    </g>
</svg>